<svg width="100%" height="100%" viewBox="0 0 24 24" fill="none" xmlns="http://www.w3.org/2000/svg">
  <path d="M3 6H21L19 16H5L3 6Z" stroke="currentColor" stroke-width="2" stroke-linejoin="round" />
  <path d="M8 20C8 20.5523 7.55228 21 7 21C6.44772 21 6 20.5523 6 20C6 19.4477 6.44772 19 7 19C7.55228 19 8 19.4477 8 20Z" stroke="currentColor" stroke-width="2" />
  <path d="M18 20C18 20.5523 17.5523 21 17 21C16.4477 21 16 20.5523 16 20C16 19.4477 16.4477 19 17 19C17.5523 19 18 19.4477 18 20Z" stroke="currentColor" stroke-width="2" />
  <path d="M6 10H18M5 13H17" stroke="currentColor" stroke-width="2" stroke-linecap="round" />
  <path d="M12 6V3" stroke="currentColor" stroke-width="2" stroke-linecap="round" />
</svg> 