<svg width="100%" height="100%" viewBox="0 0 64 64" fill="none" xmlns="http://www.w3.org/2000/svg">
  <rect width="64" height="64" fill="#FFFFFF"/>
  <path d="M42.8 33.2C42.7 28.5 46.7 26.3 46.9 26.1C44.8 23 41.6 22.6 40.4 22.5C37.8 22.3 35.2 24.1 33.9 24.1C32.5 24.1 30.5 22.6 28.3 22.6C25.4 22.6 22.7 24.4 21.2 27.2C18.1 32.9 20.4 41.3 23.3 46C24.8 48.2 26.6 50.7 28.9 50.6C31.2 50.5 32.1 49.1 34.8 49.1C37.5 49.1 38.3 50.6 40.8 50.5C43.3 50.5 44.9 48.2 46.3 46C47.9 43.5 48.6 41 48.6 40.8C48.6 40.7 42.8 38.6 42.8 33.2Z" fill="#000000"/>
  <path d="M38.3 19.6C39.5 18.1 40.3 15.9 40.1 13.7C38.1 13.8 35.7 14.9 34.4 16.4C33.3 17.7 32.3 19.9 32.6 22.1C34.7 22.3 37 21.1 38.3 19.6Z" fill="#000000"/>
</svg> 