<svg width="100%" height="100%" viewBox="0 0 64 64" fill="none" xmlns="http://www.w3.org/2000/svg">
  <rect width="64" height="64" fill="#FFFFFF"/>
  <path d="M10 32C10 21.5 18.5 13 29 13H35C45.5 13 54 21.5 54 32C54 42.5 45.5 51 35 51H29C18.5 51 10 42.5 10 32Z" fill="#1428A0"/>
  <path d="M18 26.1V38.3C18 38.7 18.3 39 18.7 39H20.1C20.5 39 20.8 38.7 20.8 38.3V26.1C20.8 25.7 20.5 25.4 20.1 25.4H18.7C18.3 25.4 18 25.7 18 26.1Z" fill="white"/>
  <path d="M23.5 31.5V38.3C23.5 38.7 23.8 39 24.2 39H25.6C26 39 26.3 38.7 26.3 38.3V31.5C26.3 29.6 27.8 28.2 29.6 28.2C31.4 28.2 32.9 29.7 32.9 31.5V38.3C32.9 38.7 33.2 39 33.6 39H35C35.4 39 35.7 38.7 35.7 38.3V31.5C35.7 28.1 33 25.4 29.6 25.4C26.2 25.4 23.5 28.1 23.5 31.5Z" fill="white"/>
  <path d="M37.9 31.5V38.3C37.9 38.7 38.2 39 38.6 39H40C40.4 39 40.7 38.7 40.7 38.3V31.5C40.7 29.6 42.2 28.2 44 28.2C45.8 28.2 47.3 29.7 47.3 31.5V38.3C47.3 38.7 47.6 39 48 39H49.4C49.8 39 50.1 38.7 50.1 38.3V31.5C50.1 28.1 47.4 25.4 44 25.4C40.6 25.4 37.9 28.1 37.9 31.5Z" fill="white"/>
</svg> 