<svg xmlns="http://www.w3.org/2000/svg" width="200" height="60" viewBox="0 0 200 60">
  <rect width="200" height="60" rx="8" fill="#000000" />
  <text x="70" y="25" font-family="Arial, sans-serif" font-size="12" text-anchor="start" fill="#FFFFFF">
    Download on the
  </text>
  <text x="70" y="45" font-family="Arial, sans-serif" font-size="18" font-weight="bold" text-anchor="start" fill="#FFFFFF">
    App Store
  </text>
  <path d="M40,20 C38,20 35,22 35,26 C35,31 38,40 40,40 C42,40 43,37 45,37 C47,37 48,40 50,40 C52,40 55,31 55,26 C55,22 52,20 50,20 C48,20 47,23 45,23 C43,23 42,20 40,20 Z" fill="#FFFFFF" />
  <path d="M45,15 C46,18 48,20 50,20 C48,20 46,17 45,15 Z" fill="#FFFFFF" />
</svg> 