<svg width="1200" height="300" xmlns="http://www.w3.org/2000/svg">
  <defs>
    <linearGradient id="electronicGradient" x1="0%" y1="0%" x2="100%" y2="100%">
      <stop offset="0%" style="stop-color:#6930C3;stop-opacity:1" />
      <stop offset="100%" style="stop-color:#310A5D;stop-opacity:1" />
    </linearGradient>
  </defs>
  <rect width="100%" height="100%" fill="url(#electronicGradient)"/>
  <text x="120" y="120" font-family="Arial" font-size="48" font-weight="bold" fill="white">Electronics Sale</text>
  <text x="120" y="170" font-family="Arial" font-size="28" fill="white">Upgrade your tech today</text>
  
  <!-- Circuit Lines -->
  <path d="M600,50 L600,100 L650,100 L650,150 L750,150 L750,200 L850,200 L850,100 L950,100 L950,250"
        stroke="#80FFDB" stroke-width="4" fill="none" stroke-linecap="round"/>
  <path d="M650,50 L650,80 L700,80 L700,180 L800,180 L800,230 L900,230 L900,150 L1000,150 L1000,250"
        stroke="#80FFDB" stroke-width="4" fill="none" stroke-linecap="round"/>
  <path d="M700,50 L700,120 L750,120 L750,180 L650,180 L650,230 L750,230 L750,250"
        stroke="#80FFDB" stroke-width="4" fill="none" stroke-linecap="round"/>
  
  <!-- Connection Points -->
  <circle cx="600" cy="100" r="6" fill="#80FFDB"/>
  <circle cx="650" cy="150" r="6" fill="#80FFDB"/>
  <circle cx="750" cy="150" r="6" fill="#80FFDB"/>
  <circle cx="750" cy="200" r="6" fill="#80FFDB"/>
  <circle cx="850" cy="100" r="6" fill="#80FFDB"/>
  <circle cx="700" cy="180" r="6" fill="#80FFDB"/>
  <circle cx="650" cy="80" r="6" fill="#80FFDB"/>
  <circle cx="750" cy="120" r="6" fill="#80FFDB"/>
  <circle cx="650" cy="180" r="6" fill="#80FFDB"/>
</svg> 